# AST/ASF file generated using VICON BodyLanguage
# -----------------------------------------------
:version 1.10
:name VICON
:units
  mass 1.0
  length 0.45
  angle deg
:documentation
   .ast/.asf automatically generated from VICON data using
   VICON BodyBuilder and BodyLanguage model FoxedUp or BRILLIANT.MOD
:root
   order TX TY TZ RX RY RZ
   axis XYZ
   position 0 0 0  
   orientation 0 0 0 
:bonedata
  begin
     id 1 
     name lhipjoint
     direction 0.692814 -0.645514 0.321437 
     length 2.38754 
     axis 0 0 0  XYZ
  end
  begin
     id 2 
     name lfemur
     direction 0.34202 -0.939693 0  
     length 6.41921  
     axis 0 0 20  XYZ
    dof rx ry rz
    limits (-160.0 20.0)
           (-70.0 70.0)
           (-60.0 70.0)
  end
  begin
     id 3 
     name ltibia
     direction 0.34202 -0.939693 0   
     length 6.98247   
     axis 0 0 20   XYZ
    dof rx
    limits (-10.0 170.0)
  end
  begin
     id 4 
     name lfoot
     direction 0.0947186 -0.260237 0.960888   
     length 1.83034   
     axis -90 7.62852e-016 20   XYZ
    dof rx rz
    limits (-45.0 90.0)
           (-70.0 20.0)
  end
  begin
     id 5 
     name ltoes
     direction 1.53538e-011 -4.21952e-011 1   
     length 0.920499   
     axis -90 7.62852e-016 20   XYZ
    dof rx
    limits (-90.0 20.0)
  end
  begin
     id 6 
     name rhipjoint
     direction -0.631686 -0.693949 0.345555   
     length 2.2209  
     axis 0 0 0  XYZ 
  end
  begin
     id 7 
     name rfemur
     direction -0.34202 -0.939693 0   
     length 6.49542   
     axis 0 0 -20   XYZ
    dof rx ry rz
    limits (-160.0 20.0)
           (-70.0 70.0)
           (-70.0 60.0)
  end
  begin
     id 8 
     name rtibia
     direction -0.34202 -0.939693 0   
     length 7.21712   
     axis 0 0 -20   XYZ
    dof rx
    limits (-10.0 170.0)
 end
 begin
     id 9 
     name rfoot
     direction -0.0825378 -0.226771 0.970444   
     length 1.89724  
     axis -90 -7.62852e-016 -20   XYZ
    dof rx rz
    limits (-45.0 90.0)
           (-20.0 70.0)
  end
  begin
     id 10 
     name rtoes
     direction -1.53515e-011 -4.22016e-011 1   
     length 0.955868   
     axis -90 -7.62852e-016 -20   XYZ
    dof rx
    limits (-90.0 20.0)
  end
  begin
     id 11 
     name lowerback
     direction -0.0104711 0.984802 -0.173368   
     length 1.84931   
     axis 0 0 0   XYZ
    dof rx ry rz
    limits (-20.0 45.0)
           (-30.0 30.0)
           (-30.0 30.0)
  end
  begin
     id 12 
     name upperback
     direction -0.00286433 0.999996 -0.000382853   
     length 1.85768   
     axis 0 0 0   XYZ
    dof rx ry rz
    limits (-20.0 45.0)
           (-30.0 30.0)
           (-30.0 30.0)
  end
  begin
     id 13 
     name thorax
     direction 0.00167534 0.996793 0.0800069   
     length 1.92   
     axis 0 0 0   XYZ
    dof rx ry rz
    limits (-20.0 45.0)
           (-30.0 30.0)
           (-30.0 30.0)
  end
  begin
     id 14 
     name lowerneck
     direction -0.0672491 0.995415 0.068018   
     length 1.58923   
     axis 0 0 0   XYZ
    dof rx ry rz
    limits (-20.0 45.0)
           (-30.0 30.0)
           (-30.0 30.0)
  end
  begin
     id 15 
     name upperneck
     direction 0.0958019 0.982476 -0.159884   
     length 1.60189   
     axis 0 0 0   XYZ
    dof rx ry rz
    limits (-20.0 45.0)
           (-30.0 30.0)
           (-30.0 30.0)
  end
  begin
     id 16
     name head
     direction 0.032989 0.997338 -0.0650226  
     length 1.61681  
     axis 0 0 0   XYZ
    dof rx ry rz
    limits (-20.0 45.0)
           (-30.0 30.0)
           (-30.0 30.0)
  end
  begin
     id 17 
     name lclavicle
     direction 0.954279 0.298875 -0.00496069  
     length 2.99449  
     axis 0 0 0   XYZ
    dof ry rz
    limits (-20.0 10.0)
           (0.0 20.0)
  end
  begin
     id 18 
     name lhumerus
     direction 1 -4.48985e-011 -4.2057e-027   
     length 4.79185   
     axis 180 -30 -90   XYZ
    dof rx ry rz
    limits (-60.0 90.0)
           (-90.0 90.0)
           (-90.0 90.0)
  end
  begin
     id 19
     name lradius
     direction 1 -4.48945e-011 1.15441e-028   
     length 2.65553   
     axis 180 -30 -90   XYZ
    dof rx
    limits (-10.0 170.0)
  end
  begin
     id 20
     name lwrist
     direction 1 -4.4899e-011 4.8894e-028   
     length 1.32777   
     axis -2.56392e-016 90 90   XYZ
    dof ry
    limits (-180.0 0.0)
 end
  begin
     id 21 
     name lhand
     direction 1 -4.48908e-011 9.7788e-028   
     length 0.743904   
     axis -6.23971e-016 90 90   XYZ
    dof rx rz
    limits (-90.0 90.0)
           (-45.0 45.0)
  end
  begin
     id 22 
     name lfingers
     direction 1 -4.49068e-011 1.95576e-027   
     length 0.599754   
     axis -1.24794e-015 90 90   XYZ
    dof rx
    limits (0.0 90.0)
  end
  begin
     id 23
     name lthumb
     direction 0.707107 -6.34883e-011 0.707107   
     length 0.861131   
     axis -90 45 2.85299e-015   XYZ
    dof rx rz
    limits (-45.0 45.0)
           (-45.0 45.0)
  end
  begin
     id 24 
     name rclavicle
     direction -0.957921 0.286916 0.00811568   
     length 3.06817  
     axis 0 0 0   XYZ 
    dof ry rz
    limits (-10.0 20.0)
           (-20.0 0.0)
  end
  begin
     id 25 
     name rhumerus
     direction -1 -4.48971e-011 -3.07942e-027  
     length 4.77254   
     axis 180 30 90   XYZ
    dof rx ry rz
    limits (-90.0 60.0)
           (-90.0 90.0)
           (-90.0 90.0)
  end
  begin
     id 26 
     name rradius
     direction -1 -4.48957e-011 -9.6815e-028   
     length 2.75995   
     axis 180 30 90   XYZ
    dof rx
    limits (-10.0 170.0)
  end
  begin
     id 27 
     name rwrist
     direction -1 -4.48979e-011 4.8894e-028   
     length 1.37997   
     axis -2.56392e-016 -90 -90   XYZ
    dof ry
    limits (-180.0 0.0)
  end
  begin
     id 28
     name rhand
     direction -1 -4.48906e-011 9.7788e-028   
     length 0.701619   
     axis -6.23971e-016 -90 -90   XYZ
    dof rx rz
    limits (-90.0 90.0)
           (-45.0 45.0)
  end
  begin
     id 29
     name rfingers
     direction -1 -4.49018e-011 1.95576e-027   
     length 0.565663   
     axis -1.24794e-015 -90 -90   XYZ
    dof rx
    limits (0.0 90.0)
  end
  begin
     id 30
     name rthumb
     direction -0.707107 -6.34881e-011 0.707107   
     length 0.812183   
     axis -90 -45 -2.85299e-015   XYZ
    dof rx rz
    limits (-45.0 45.0)
           (-45.0 45.0)
  end
:hierarchy
  begin
    root lhipjoint rhipjoint lowerback
    lhipjoint lfemur
    lfemur ltibia
    ltibia lfoot
    lfoot ltoes
    rhipjoint rfemur
    rfemur rtibia
    rtibia rfoot
    rfoot rtoes
    lowerback upperback
    upperback thorax
    thorax lowerneck lclavicle rclavicle
    lowerneck upperneck
    upperneck head
    lclavicle lhumerus
    lhumerus lradius
    lradius lwrist
    lwrist lhand lthumb
    lhand lfingers
    rclavicle rhumerus
    rhumerus rradius
    rradius rwrist
    rwrist rhand rthumb
    rhand rfingers
  end

#!OML:ASF F:\VICON\USERDATA\INSTALL\rory3\rory3.ASF
:FULLY-SPECIFIED
:DEGREES
49
root -17.0203 15.6885 10.5029 -181.804 60.8342 -183.731
lowerback 9.81953 0.711024 -3.27401
upperback -1.49871 0.501871 -0.807625
thorax -7.12381 0.366212 0.913265
lowerneck -12.2446 -5.59672 -10.9125
upperneck 27.1488 -7.16137 9.35248
head 11.6234 -2.94501 4.41465
rclavicle -2.81653e-014 1.82882e-014
rhumerus -30.969 -3.36556 -88.5157
rradius 27.237
rwrist 11.9452
rhand -18.4629 12.6904
rfingers 7.12502
rthumb 7.82361 -17.1448
lclavicle -2.81653e-014 1.82882e-014
lhumerus -31.0454 9.81236 83.8319
lradius 21.0063
lwrist -7.13054
lhand -13.0909 12.4803
lfingers 7.12502
lthumb 13.0056 42.0549
rfemur -15.694 8.65962 16.3468
rtibia 44.4966
rfoot -19.7418 -24.8413
rtoes -2.8278
lfemur -9.20972 -7.97221 -26.483
ltibia 28.2551
lfoot -18.7807 4.15588
ltoes -4.69718
50
root -17.0095 15.6792 10.4694 -182.001 60.8018 -183.947
lowerback 9.80177 0.674917 -3.36528
upperback -1.4451 0.444914 -0.813578
thorax -7.05506 0.340794 0.967974
lowerneck -12.2766 -5.63296 -11.0752
upperneck 27.4101 -7.13038 9.21048
head 11.7307 -2.95888 4.40203
rclavicle 6.30644e-014 1.05356e-014
rhumerus -30.8896 -3.4023 -88.4784
rradius 27.2171
rwrist 11.7382
rhand -18.6098 12.8101
rfingers 7.12502
rthumb 7.68177 -17.0304
lclavicle 6.30644e-014 1.05356e-014
lhumerus -31.0225 10.0044 83.6929
lradius 20.7658
lwrist -7.39324
lhand -13.186 12.2808
lfingers 7.12502
lthumb 12.9139 41.8612
rfemur -16.4243 8.46529 16.2603
rtibia 45.8947
rfoot -19.9114 -24.9197
rtoes 1.06067
lfemur -9.11383 -7.94727 -26.7174
ltibia 28.3014
lfoot -18.9697 4.28945
ltoes -6.73415
51
root -16.999 15.6732 10.4389 -181.985 60.8418 -183.955
lowerback 9.76968 0.620024 -3.37693
upperback -1.40498 0.373743 -0.799333
thorax -6.99106 0.305525 1.00137
lowerneck -12.2796 -5.63929 -11.1548
upperneck 27.6552 -7.07522 9.06205
head 11.8189 -2.9549 4.37596
rclavicle 6.61953e-014 1.39149e-014
rhumerus -30.8473 -3.31562 -88.4793
rradius 27.2157
rwrist 11.7733
rhand -18.4737 12.837
rfingers 7.12502
rthumb 7.81314 -16.9986
lclavicle 6.61953e-014 1.39149e-014
lhumerus -30.9992 10.8652 83.175
lradius 20.3987
lwrist -8.45276
lhand -12.8073 12.0021
lfingers 7.12502
lthumb 13.2789 41.559
rfemur -17.2309 8.40424 16.3047
rtibia 47.2965
rfoot -20.3992 -24.9092
rtoes 6.43075
lfemur -9.05541 -7.98674 -26.8305
ltibia 28.3748
lfoot -19.3281 4.38525
ltoes -7.42845
52
root -16.9859 15.6678 10.4088 -181.977 60.9002 -183.883
lowerback 9.83141 0.576632 -3.35204
upperback -1.3651 0.317596 -0.797919
thorax -6.98115 0.276672 0.997572
lowerneck -12.2757 -5.64195 -11.1221
upperneck 27.9458 -7.03458 8.89546
head 11.9199 -2.94608 4.32325
rclavicle -1.11568e-014 7.95139e-015
rhumerus -30.8987 -3.34546 -88.42
rradius 27.2072
rwrist 11.9556
rhand -18.1299 13.2984
rfingers 7.12502
rthumb 8.14492 -16.5247
lclavicle -1.11568e-014 7.95139e-015
lhumerus -31.0272 11.6745 82.6366
lradius 20.0972
lwrist -9.37709
lhand -12.4846 11.9266
lfingers 7.12502
lthumb 13.59 41.4631
rfemur -17.9678 8.36538 16.4135
rtibia 48.6848
rfoot -20.5894 -25.143
rtoes 9.84005
lfemur -8.93403 -7.90254 -26.9007
ltibia 28.5166
lfoot -19.5146 4.2862
ltoes -7.43848
53
root -16.9738 15.6639 10.3834 -181.539 60.9485 -183.34
lowerback 10.0019 0.542016 -3.2091
upperback -1.38175 0.287256 -0.684645
thorax -7.09448 0.25944 1.04022
lowerneck -12.1635 -5.64047 -11.0796
upperneck 28.1573 -6.97719 8.66002
head 11.9628 -2.94019 4.24299
rclavicle 1.49337e-014 1.21259e-014
rhumerus -31.0273 -3.39609 -88.2832
rradius 27.2246
rwrist 12.0754
rhand -17.8304 13.7401
rfingers 7.12502
rthumb 8.43404 -16.0715
lclavicle 1.49337e-014 1.21259e-014
lhumerus -31.0984 12.2615 82.2889
lradius 19.788
lwrist -9.88342
lhand -12.4717 11.8584
lfingers 7.12502
lthumb 13.6024 41.394
rfemur -18.7441 8.40563 16.8151
rtibia 50.0138
rfoot -20.4073 -25.6534
rtoes 11.6954
lfemur -8.92013 -7.76026 -26.676
ltibia 28.7356
lfoot -19.4588 4.00935
ltoes -6.83103
54
root -16.964 15.6608 10.3592 -181.033 61.0397 -182.841
lowerback 10.09 0.539474 -3.06066
upperback -1.38522 0.30363 -0.594126
thorax -7.14847 0.263535 1.04901
lowerneck -12.1106 -5.66623 -11.1228
upperneck 28.3037 -6.97038 8.54525
head 12.0073 -2.953 4.21317
rclavicle -4.32108e-014 1.2921e-014
rhumerus -30.9414 -3.51152 -88.2033
rradius 27.1151
rwrist 12.1215
rhand -17.8769 13.6588
rfingers 7.12502
rthumb 8.38912 -16.1546
lclavicle -4.32108e-014 1.2921e-014
lhumerus -31.0818 12.5225 82.0842
lradius 19.5133
lwrist -10.2706
lhand -12.5695 11.818
lfingers 7.12502
lthumb 13.5082 41.3599
rfemur -19.6701 8.48625 17.182
rtibia 51.2708
rfoot -19.4461 -26.2958
rtoes 12.6908
lfemur -9.04625 -7.57932 -26.4475
ltibia 28.9612
lfoot -19.4313 3.64061
ltoes -5.70748
55
root -16.951 15.6592 10.3337 -180.311 61.1469 -182.101
lowerback 10.0607 0.553575 -2.71395
upperback -1.31671 0.371102 -0.542142
thorax -7.05852 0.281648 0.898421
lowerneck -12.2394 -5.74527 -11.1072
upperneck 28.55 -7.04849 8.45424
head 12.1383 -2.99051 4.17042
rclavicle -2.94698e-014 6.95746e-015
rhumerus -30.7267 -3.78423 -88.2335
rradius 26.9739
rwrist 12.2141
rhand -18.1309 13.4109
rfingers 7.12502
rthumb 8.14397 -16.4122
lclavicle -2.94698e-014 6.95746e-015
lhumerus -30.9327 12.655 81.868
lradius 19.2446
lwrist -10.648
lhand -12.5715 11.8156
lfingers 7.12502
lthumb 13.5062 41.3576
rfemur -20.5472 8.55632 17.6718
rtibia 52.4209
rfoot -18.4608 -26.7617
rtoes 14.5589
lfemur -9.10472 -7.53557 -26.1239
ltibia 29.114
lfoot -19.746 3.7525
ltoes -6.18545
